<?xml version="1.0" encoding="UTF-8"?>
<svg width="40px" height="40px" viewBox="0 0 40 40" version="1.1" xmlns="http://www.w3.org/2000/svg" xmlns:xlink="http://www.w3.org/1999/xlink">
    <!-- Generator: Sketch 52.6 (67491) - http://www.bohemiancoding.com/sketch -->
    <title>exit</title>
    <desc>Created with Sketch.</desc>
    <g id="exit" stroke="none" stroke-width="1" fill="none" fill-rule="evenodd">
        <rect fill="#FFFFFF" x="0" y="0" width="40" height="40"></rect>
        <g id="feedback_exit" fill="#34A853" fill-rule="nonzero">
            <path d="M20.0531561,0.0132890365 C9.089701,0.0132890365 0.119601329,8.9833887 0.119601329,19.9468439 C0.119601329,30.910299 9.089701,39.8803987 20.0531561,39.8803987 C31.0166113,39.8803987 39.986711,30.910299 39.986711,19.9468439 C39.986711,8.9833887 31.0166113,0.0132890365 20.0531561,0.0132890365 Z M22.6741815,29.1858441 L14.1683345,29.1858441 C13.6982359,29.1858441 13.3162807,28.803889 13.3162807,28.3337904 L13.3162807,11.3074057 C13.3162807,10.837307 13.6982359,10.4553519 14.1683345,10.4553519 L22.6741815,10.4553519 C23.1442802,10.4553519 23.5262353,10.837307 23.5262353,11.3074057 C23.5262353,11.7775043 23.1442802,12.1594594 22.6741815,12.1594594 L15.0203883,12.4826522 L15.0203883,26.9088039 L22.6888721,27.4817366 C23.1589708,27.4817366 23.5409259,27.8636917 23.5409259,28.3337904 C23.5409259,28.803889 23.1442802,29.1858441 22.6741815,29.1858441 Z M28.6385579,20.048302 L24.099168,24.5876919 C23.746594,24.9402659 23.1589708,24.9402659 22.8063968,24.5876919 C22.4538228,24.2351179 22.4538228,23.6474947 22.8063968,23.2949207 L25.7738944,20.3274231 L20.2061638,20.3274231 C19.706684,20.3274231 19.2953477,19.9160868 19.2953477,19.416607 C19.2953477,18.9171272 19.706684,18.5057909 20.2061638,18.5057909 L25.7738944,18.5057909 L22.8063968,15.5382933 C22.4538228,15.1857193 22.4538228,14.5980961 22.8063968,14.2455221 C23.1589708,13.8929481 23.746594,13.8929481 24.099168,14.2455221 L28.6385579,18.784912 C28.9911319,19.1081048 28.9911319,19.6957281 28.6385579,20.048302 Z" id="Shape"></path>
        </g>
    </g>
</svg>