<?xml version="1.0" encoding="UTF-8"?>
<svg width="40px" height="40px" viewBox="0 0 40 40" version="1.1" xmlns="http://www.w3.org/2000/svg" xmlns:xlink="http://www.w3.org/1999/xlink">
    <!-- Generator: Sketch 52.6 (67491) - http://www.bohemiancoding.com/sketch -->
    <title>feedbacks</title>
    <desc>Created with Sketch.</desc>
    <g id="feedbacks" stroke="none" stroke-width="1" fill="none" fill-rule="evenodd">
        <rect fill="#FFFFFF" x="0" y="0" width="40" height="40"></rect>
        <g id="Group" fill="#FFA403" fill-rule="nonzero">
            <path d="M37.833887,28.7973422 L39.627907,34.6179402 C39.7209302,34.9767442 39.6677741,35.3488372 39.4285714,35.627907 C39.1893688,35.9069767 38.8571429,36.0531561 38.4850498,36.0398671 L32.3189369,35.6013289 C28.8106312,38.3787375 24.4385382,39.9202658 19.9468439,39.9202658 C8.95681063,39.9202658 0.0132890365,30.9767442 0.0132890365,19.986711 C0.0132890365,8.99667774 8.95681063,0.0531561462 19.9468439,0.0531561462 C30.9368771,0.0531561462 39.8803987,8.99667774 39.8803987,19.986711 C39.8803987,23.0431894 39.1760797,26.0730897 37.833887,28.7973422 Z M28.6273465,21.692211 L28.4300623,21.6640276 C28.0073106,21.6076607 27.5986506,21.8894952 27.5000085,22.2981552 C26.6404133,25.7224444 23.5120503,28.2166797 19.9186604,28.2166797 C16.4239126,28.2166797 13.3801,25.8774534 12.4218627,22.5940814 L13.5773841,23.3691263 L14.5215297,21.9881373 L10.5476632,19.2966178 L8.5043631,23.5945939 L10.0121777,24.2991802 L10.6040301,23.0450166 C11.7736433,27.1457086 15.5784091,30.0908792 19.9468439,30.0908792 C24.4139207,30.0908792 28.3032368,26.9766079 29.3742079,22.7349987 C29.4587583,22.2417883 29.1205569,21.7485779 28.6273465,21.692211 Z M29.3319327,16.9151162 C28.1623196,12.8144243 24.3575538,9.86925371 19.989119,9.86925371 C15.5220422,9.86925371 11.6327261,12.983525 10.561755,17.2251342 C10.4349294,17.7183446 10.7731308,18.2115549 11.2663412,18.2820136 L11.4636254,18.310197 C11.8863771,18.3665639 12.2950371,18.0847294 12.3936792,17.6760694 C13.2532744,14.2517802 16.3816374,11.7575449 19.9750273,11.7575449 C23.4697751,11.7575449 26.5135877,14.0967712 27.471825,17.3801432 L26.3163036,16.6050983 L25.372158,17.9860873 L29.3460245,20.6776068 L31.3893246,16.3796307 L29.88151,15.6750444 L29.3319327,16.9151162 Z" id="Shape"></path>
        </g>
    </g>
</svg>