<?xml version="1.0" encoding="UTF-8"?>
<svg width="40px" height="40px" viewBox="0 0 40 40" version="1.1" xmlns="http://www.w3.org/2000/svg" xmlns:xlink="http://www.w3.org/1999/xlink">
    <!-- Generator: Sketch 52.6 (67491) - http://www.bohemiancoding.com/sketch -->
    <title>gudie</title>
    <desc>Created with Sketch.</desc>
    <g id="gudie" stroke="none" stroke-width="1" fill="none" fill-rule="evenodd">
        <rect fill="#FFFFFF" x="0" y="0" width="40" height="40"></rect>
        <g id="feedback_Info" fill="#4285F4" fill-rule="nonzero">
            <path d="M20,0.0939597315 C9.03355705,0.0939597315 0.0536912752,9.0738255 0.0536912752,20.0536913 C0.0536912752,31.0201342 9.03355705,40 20,40 C30.966443,40 39.9463087,31.0201342 39.9463087,20.0536913 C39.9463087,9.08724832 30.966443,0.0939597315 20,0.0939597315 Z M23.0872483,28.2416107 C22.2416107,28.5234899 21.6778523,28.8053691 21.114094,28.9932886 C20.6442953,29.1812081 20.0805369,29.2751678 19.4228188,29.2751678 C18.4832215,29.2751678 17.6375839,29.0872483 17.1677852,28.5234899 C16.6040268,28.0536913 16.3221477,27.3959732 16.3221477,26.738255 C16.3221477,26.4563758 16.3221477,26.1744966 16.4161074,25.8926174 C16.4161074,25.6107383 16.5100671,25.2348993 16.6040268,24.8590604 L17.6375839,21.2885906 C17.7315436,20.9127517 17.8255034,20.6308725 17.8255034,20.3489933 C17.9194631,20.0671141 17.9194631,19.7852349 17.9194631,19.5033557 C17.9194631,19.033557 17.8255034,18.7516779 17.6375839,18.5637584 C17.4496644,18.3758389 17.0738255,18.2818792 16.5100671,18.2818792 C16.2281879,18.2818792 15.9463087,18.2818792 15.7583893,18.3758389 C15.4765101,18.4697987 15.2885906,18.5637584 15.1006711,18.6577181 L15.3825503,17.5302013 C16.0402685,17.2483221 16.6979866,17.0604027 17.261745,16.8724832 C17.8255034,16.6845638 18.3892617,16.590604 18.9530201,16.590604 C19.8926174,16.590604 20.6442953,16.7785235 21.2080537,17.2483221 C21.7718121,17.7181208 21.9597315,18.2818792 21.9597315,19.033557 C21.9597315,19.2214765 21.9597315,19.5033557 21.8657718,19.8791946 C21.8657718,20.2550336 21.7718121,20.6308725 21.6778523,20.9127517 L20.8322148,24.3892617 C20.738255,24.6711409 20.6442953,25.0469799 20.6442953,25.3288591 C20.5503356,25.704698 20.5503356,25.9865772 20.5503356,26.1744966 C20.5503356,26.6442953 20.6442953,26.9261745 20.8322148,27.114094 C21.0201342,27.3020134 21.3959732,27.3959732 21.9597315,27.3959732 C22.2416107,27.3959732 22.5234899,27.3959732 22.8053691,27.3020134 C23.0872483,27.2080537 23.3691275,27.114094 23.4630872,27.114094 L23.0872483,28.2416107 Z M22.9932886,14.2281879 C22.5234899,14.6979866 21.9597315,14.885906 21.3020134,14.885906 C20.6442953,14.885906 20.0805369,14.6979866 19.6107383,14.2281879 C19.1409396,13.7583893 18.8590604,13.2885906 18.8590604,12.6308725 C18.8590604,11.9731544 19.1409396,11.5033557 19.6107383,11.033557 C19.9865772,10.5637584 20.5503356,10.3758389 21.3020134,10.3758389 C21.9597315,10.3758389 22.5234899,10.5637584 22.9932886,11.033557 C23.4630872,11.5033557 23.6510067,11.9731544 23.6510067,12.6308725 C23.6510067,13.2885906 23.4630872,13.7583893 22.9932886,14.2281879 Z" id="Shape"></path>
        </g>
    </g>
</svg>